# xmcd
#
# Track frame offsets: 
#        183
#        17300
#        34968
#        46210
#        59480
#        74330
#        102110
#        117518
#        133105
#        143400
#        152983
#        168985
#        181783
#        196080
#
# Disc length: 2818 seconds
#
# Revision: 9
# Processed by: cddbd v1.5.2PL0 Copyright (c) Steve Scherf et al.
# Submitted via: ExactAudioCopy v0.99pb3
#
DISCID=b90b000e
DTITLE=Various Artist - Amor de Mis Amores
DYEAR=1989
DGENRE=Latin
TTITLE0=Paco - Amor de Mis Amores
TTITLE1=José e Los Reyes - Lailola
TTITLE2=Paco Paco - Taka Takata
TTITLE3=Rumba Tres - Rumbamania Part 1
TTITLE4=Camaleon - Un Poquito
TTITLE5=El Chato - El Chato Medly
TTITLE6=Gipsy Kings - Djobi Djoba
TTITLE7=Peret - The Borriquito Mix
TTITLE8=Paco Paco - Capunca
TTITLE9=José e Los Reyes - La Hora de Marina
TTITLE10=George La Costa - Playa de Barcelona
TTITLE11=Toni y Los Santos - Trico-Trico-Tra
TTITLE12=Rumba Tres - Rumbamania Part 2
TTITLE13=Gypsy Kings - Bamboléo
EXTD=YEAR: 1989
EXTT0=
EXTT1=
EXTT2=
EXTT3=
EXTT4=
EXTT5=
EXTT6=
EXTT7=
EXTT8=
EXTT9=
EXTT10=
EXTT11=
EXTT12=
EXTT13=
PLAYORDER=
